<svg width="133" height="28" viewBox="0 0 133 28" fill="none" xmlns="http://www.w3.org/2000/svg">
    <path
        d="M10.773 26.9998C14.4279 26.9998 17.4853 25.805 19.9453 23.4504C22.4404 21.0958 23.6704 18.179 23.6704 14.6998C23.6704 11.2207 22.4404 8.30384 19.9453 5.94927C17.4853 3.5947 14.4279 2.39984 10.773 2.39984H0.651855V26.9998H10.773ZM10.773 7.5307C12.7761 7.5307 14.4279 8.23356 15.7984 9.60413C17.169 10.9747 17.8719 12.6967 17.8719 14.6998C17.8719 16.703 17.2041 18.425 15.8336 19.7956C14.463 21.1661 12.7761 21.869 10.773 21.869H6.23957V7.5307H10.773Z"
        fill="#030034" />
    <path
        d="M28.2396 24.7156C30.1022 26.543 32.4568 27.4567 35.2331 27.4567C38.0094 27.4567 40.3288 26.543 42.1914 24.7156C44.0539 22.853 45.0028 20.5687 45.0028 17.8627C45.0028 15.1567 44.0539 12.8724 42.1914 11.045C40.3288 9.18241 38.0094 8.2687 35.2331 8.2687C32.4568 8.2687 30.1022 9.18241 28.2396 11.045C26.3771 12.8724 25.4634 15.1567 25.4634 17.8627C25.4634 20.5687 26.3771 22.853 28.2396 24.7156ZM35.2331 22.2556C34.0031 22.2556 32.9839 21.8338 32.1756 20.9904C31.3674 20.147 30.9456 19.0927 30.9456 17.8627C30.9456 16.6327 31.3674 15.5784 32.1756 14.735C32.9839 13.8916 34.0031 13.4698 35.2331 13.4698C36.4279 13.4698 37.4471 13.8916 38.2554 14.7701C39.0988 15.6136 39.5205 16.6327 39.5205 17.8627C39.5205 19.0927 39.0988 20.1118 38.2554 20.9904C37.4471 21.8338 36.4279 22.2556 35.2331 22.2556Z"
        fill="#030034" />
    <path
        d="M52.3507 26.9998V16.457C52.3507 14.5944 53.7213 13.1536 55.4433 13.1536C57.1653 13.1536 58.5008 14.5944 58.5008 16.457V26.9998H63.7722V16.457C63.7722 14.5944 65.1428 13.1536 66.8648 13.1536C68.5868 13.1536 69.9222 14.5944 69.9222 16.457V26.9998H75.1936V15.0513C75.1936 13.1184 74.5259 11.537 73.1553 10.2367C71.7847 8.93641 70.133 8.2687 68.1299 8.2687C65.6699 8.2687 63.8425 9.21756 62.6476 11.0801C61.3473 9.21756 59.4847 8.2687 57.095 8.2687C55.1622 8.2687 53.5808 8.97156 52.3507 10.3773V8.72556H47.0793V26.9998H52.3507Z"
        fill="#030034" />
    <path
        d="M77.2831 17.8627C77.2831 20.5687 78.0913 22.853 79.743 24.7156C81.3948 26.543 83.4682 27.4567 85.9282 27.4567C87.8259 27.4567 89.5128 26.8944 90.9888 25.7347V26.9998H96.2251V8.72556H90.9888V9.95556C89.4776 8.83099 87.7908 8.2687 85.9282 8.2687C83.4682 8.2687 81.3948 9.18241 79.743 11.0098C78.0913 12.8373 77.2831 15.1216 77.2831 17.8627ZM86.8419 13.4698C87.9665 13.4698 88.9153 13.8916 89.7236 14.735C90.5319 15.5784 90.9185 16.5976 90.9185 17.8276C90.9185 20.3578 89.091 22.2556 86.8419 22.2556C84.5576 22.2556 82.7653 20.3578 82.7653 17.8276C82.7653 15.4027 84.5576 13.4698 86.8419 13.4698Z"
        fill="#030034" />
    <path
        d="M104.17 26.9998V8.72556H98.899V26.9998H104.17ZM99.1802 6.51156C99.8127 7.10898 100.586 7.42527 101.535 7.42527C102.484 7.42527 103.257 7.10898 103.854 6.51156C104.487 5.91413 104.803 5.14098 104.803 4.19213C104.803 3.24327 104.487 2.47013 103.854 1.8727C103.257 1.27527 102.484 0.958984 101.535 0.958984C100.586 0.958984 99.8127 1.27527 99.1802 1.8727C98.5827 2.47013 98.2664 3.24327 98.2664 4.19213C98.2664 5.14098 98.5827 5.91413 99.1802 6.51156Z"
        fill="#030034" />
    <path
        d="M106.843 26.9998H112.114V16.6678C112.114 14.6647 113.555 13.1536 115.488 13.1536C117.421 13.1536 118.826 14.6647 118.826 16.6678V26.9998H124.098V15.2621C124.098 13.259 123.43 11.6073 122.06 10.2718C120.724 8.93641 119.072 8.2687 117.104 8.2687C114.996 8.2687 113.344 9.04184 112.114 10.5881V8.72556H106.843V26.9998Z"
        fill="#030034" />
    <path
        d="M129.224 21.4824C127.537 21.4824 126.272 22.7476 126.272 24.4696C126.272 26.1916 127.537 27.4567 129.224 27.4567C130.946 27.4567 132.246 26.1916 132.246 24.4696C132.246 22.7476 130.946 21.4824 129.224 21.4824Z"
        fill="#B5ED3D" />
</svg>