<svg width="90" height="19" viewBox="0 0 90 19" fill="none" xmlns="http://www.w3.org/2000/svg">
<path d="M7.04 18C9.536 18 11.624 17.184 13.304 15.576C15.008 13.968 15.848 11.976 15.848 9.6C15.848 7.224 15.008 5.232 13.304 3.624C11.624 2.016 9.536 1.2 7.04 1.2H0.128V18H7.04ZM7.04 4.704C8.408 4.704 9.536 5.184 10.472 6.12C11.408 7.056 11.888 8.232 11.888 9.6C11.888 10.968 11.432 12.144 10.496 13.08C9.56 14.016 8.408 14.496 7.04 14.496H3.944V4.704H7.04ZM18.9684 16.44C20.2404 17.688 21.8484 18.312 23.7444 18.312C25.6404 18.312 27.2244 17.688 28.4964 16.44C29.7684 15.168 30.4164 13.608 30.4164 11.76C30.4164 9.912 29.7684 8.352 28.4964 7.104C27.2244 5.832 25.6404 5.208 23.7444 5.208C21.8484 5.208 20.2404 5.832 18.9684 7.104C17.6964 8.352 17.0724 9.912 17.0724 11.76C17.0724 13.608 17.6964 15.168 18.9684 16.44ZM23.7444 14.76C22.9044 14.76 22.2084 14.472 21.6564 13.896C21.1044 13.32 20.8164 12.6 20.8164 11.76C20.8164 10.92 21.1044 10.2 21.6564 9.624C22.2084 9.048 22.9044 8.76 23.7444 8.76C24.5604 8.76 25.2564 9.048 25.8084 9.648C26.3844 10.224 26.6724 10.92 26.6724 11.76C26.6724 12.6 26.3844 13.296 25.8084 13.896C25.2564 14.472 24.5604 14.76 23.7444 14.76ZM35.4346 18V10.8C35.4346 9.528 36.3706 8.544 37.5466 8.544C38.7226 8.544 39.6346 9.528 39.6346 10.8V18H43.2346V10.8C43.2346 9.528 44.1706 8.544 45.3466 8.544C46.5226 8.544 47.4346 9.528 47.4346 10.8V18H51.0346V9.84C51.0346 8.52 50.5786 7.44 49.6426 6.552C48.7066 5.664 47.5786 5.208 46.2106 5.208C44.5306 5.208 43.2826 5.856 42.4666 7.128C41.5786 5.856 40.3066 5.208 38.6746 5.208C37.3546 5.208 36.2746 5.688 35.4346 6.648V5.52H31.8346V18H35.4346ZM52.4615 11.76C52.4615 13.608 53.0135 15.168 54.1415 16.44C55.2695 17.688 56.6855 18.312 58.3655 18.312C59.6615 18.312 60.8135 17.928 61.8215 17.136V18H65.3975V5.52H61.8215V6.36C60.7895 5.592 59.6375 5.208 58.3655 5.208C56.6855 5.208 55.2695 5.832 54.1415 7.08C53.0135 8.328 52.4615 9.888 52.4615 11.76ZM58.9895 8.76C59.7575 8.76 60.4055 9.048 60.9575 9.624C61.5095 10.2 61.7735 10.896 61.7735 11.736C61.7735 13.464 60.5255 14.76 58.9895 14.76C57.4295 14.76 56.2055 13.464 56.2055 11.736C56.2055 10.08 57.4295 8.76 58.9895 8.76ZM70.8236 18V5.52H67.2236V18H70.8236ZM67.4156 4.008C67.8476 4.416 68.3756 4.632 69.0236 4.632C69.6716 4.632 70.1996 4.416 70.6076 4.008C71.0396 3.6 71.2556 3.072 71.2556 2.424C71.2556 1.776 71.0396 1.248 70.6076 0.839999C70.1996 0.431999 69.6716 0.215999 69.0236 0.215999C68.3756 0.215999 67.8476 0.431999 67.4156 0.839999C67.0076 1.248 66.7916 1.776 66.7916 2.424C66.7916 3.072 67.0076 3.6 67.4156 4.008ZM72.6486 18H76.2486V10.944C76.2486 9.576 77.2326 8.544 78.5526 8.544C79.8726 8.544 80.8326 9.576 80.8326 10.944V18H84.4326V9.984C84.4326 8.616 83.9766 7.488 83.0406 6.576C82.1286 5.664 81.0006 5.208 79.6566 5.208C78.2166 5.208 77.0886 5.736 76.2486 6.792V5.52H72.6486V18Z" fill="white"/>
<path d="M87.9333 14.232C86.7813 14.232 85.9173 15.096 85.9173 16.272C85.9173 17.448 86.7813 18.312 87.9333 18.312C89.1093 18.312 89.9973 17.448 89.9973 16.272C89.9973 15.096 89.1093 14.232 87.9333 14.232Z" fill="#B5ED3D"/>
</svg>
